PathFileType	4	(X/Y/Z)	c:/Users/goper/Files/vsCode/490R/osim_files/C04/C04_Slow_01.trc
DataRate	CameraRate	NumFrames	NumMarkers	Units                	OrigDataRate	OrigDataStartFrame	OrigNumFrames
250.00	250.00	7	36	mm	250.0	2002	3203
                Frame#	Time	LPSIS			LASIS			LTH1			LTH2			LTH3			LTH4			LLFE			LMFE			LSH1			LSH2			LSH3			LSH4			LLMAL			LMMAL			LCAL			LMTP5			LTOE			LMTP1			RPSIS			RASIS			RTH1			RTH2			RTH3			RTH4			RLFE			RMFE			RSH1			RSH2			RSH3			RSH4			RLMAL			RMMAL			RCAL			RMTP1			RTOE			RMTP5		
		X1	Y1	Z1	X2	Y2	Z2	X3	Y3	Z3	X4	Y4	Z4	X5	Y5	Z5	X6	Y6	Z6	X7	Y7	Z7	X8	Y8	Z8	X9	Y9	Z9	X10	Y10	Z10	X11	Y11	Z11	X12	Y12	Z12	X13	Y13	Z13	X14	Y14	Z14	X15	Y15	Z15	X16	Y16	Z16	X17	Y17	Z17	X18	Y18	Z18	X19	Y19	Z19	X20	Y20	Z20	X21	Y21	Z21	X22	Y22	Z22	X23	Y23	Z23	X24	Y24	Z24	X25	Y25	Z25	X26	Y26	Z26	X27	Y27	Z27	X28	Y28	Z28	X29	Y29	Z29	X30	Y30	Z30	X31	Y31	Z31	X32	Y32	Z32	X33	Y33	Z33	X34	Y34	Z34	X35	Y35	Z35	X36	Y36	Z36

2002	8.00400	568.51190	976.95056	246.20248	406.98114	962.29755	332.89917	488.69919	707.02979	384.06287	470.95697	647.78632	375.20050	428.65448	731.92560	392.52191	0.00000	0.00000	0.00000	385.79028	466.38364	369.62927	378.01773	444.64096	254.07297	478.08899	428.72745	380.69098	519.24994	404.23441	377.29532	447.24326	387.80865	385.38663	482.63190	356.91702	382.81738	689.74127	224.14334	359.41531	666.87988	236.97861	271.25912	746.39319	269.29993	310.44794	663.35760	83.91689	359.35889	623.47998	86.40545	312.35312	660.40320	98.18224	255.46855	564.05298	982.49603	171.17213	390.93988	963.20416	120.16077	470.39563	731.29913	34.25345	463.15768	671.19867	48.83438	0.00000	0.00000	0.00000	0.00000	0.00000	0.00000	394.22910	464.13763	107.85246	420.50046	465.18805	217.79028	459.11047	331.25723	86.65343	457.29086	286.58096	93.73410	398.26517	330.14600	102.16423	404.13516	283.12347	105.47613	455.35092	83.46593	130.42989	454.40424	95.99593	221.50090	520.41461	53.22242	171.72231	330.06091	37.86115	233.62912	294.82150	54.78872	193.25075	320.33780	26.91291	128.43939
2003	8.00800	565.03729	977.43774	246.24954	403.19458	962.96600	332.30948	483.55908	707.48578	384.24246	465.44455	648.36078	375.28888	423.74182	732.84937	392.46289	0.00000	0.00000	0.00000	378.70294	467.64349	369.30975	370.74957	446.15112	253.72235	470.78467	429.35333	380.12253	511.76575	404.42365	376.70126	439.57468	388.73611	384.91168	474.69724	357.48651	382.37265	680.42468	222.91385	359.04828	657.55811	235.75941	270.75784	737.57867	266.72571	309.51019	651.27008	83.13043	359.93820	610.10010	83.66328	309.88550	648.24609	96.85450	255.93781	560.72858	982.89349	171.26299	386.84341	963.72485	118.44733	468.15707	731.59357	34.16205	461.30453	671.57385	48.76564	0.00000	0.00000	0.00000	0.00000	0.00000	0.00000	393.12833	464.22302	107.50158	419.18286	465.36459	217.66995	458.51880	331.36343	86.60736	456.52896	286.57666	93.89903	0.00000	0.00000	0.00000	403.60486	283.01697	105.34734	455.28128	83.51346	130.43507	454.36533	96.09601	221.46080	520.37549	53.35368	171.71964	330.02063	37.85780	233.58475	294.75241	54.70614	193.17926	320.35031	26.84143	128.35474
2004	8.01200	561.66119	977.88422	246.29286	399.51703	963.49835	331.99747	478.52106	707.96796	384.34409	459.94281	648.94165	375.35406	421.18314	734.80908	393.00858	0.00000	0.00000	0.00000	371.79669	469.00870	368.91348	0.00000	0.00000	0.00000	463.16486	429.71411	379.43158	504.51514	404.56204	376.03674	431.95160	389.53619	384.46460	467.01163	358.22061	382.00229	672.32251	222.51486	359.34677	647.78619	234.08293	270.38977	728.83777	263.91809	308.51044	639.30835	82.45541	360.62955	597.84631	83.48569	310.50217	635.91571	95.47028	256.52420	557.38385	983.30481	171.29379	384.61893	963.55347	119.44634	465.78809	731.79175	34.16892	459.63968	672.01251	48.69490	0.00000	0.00000	0.00000	0.00000	0.00000	0.00000	391.88254	464.17294	107.25836	417.48883	465.27713	217.52934	458.01715	331.51852	86.51735	456.12381	286.69568	93.85117	397.19360	330.16238	101.61720	402.98535	282.86246	105.24345	455.21844	83.55468	130.44118	454.30276	96.15101	221.41348	520.38916	53.52369	171.69632	330.04675	37.85062	233.52544	294.70471	54.66146	193.11676	320.33215	26.76582	128.28464
2005	8.01600	558.08386	978.35632	246.36841	395.86349	964.17462	331.55042	473.42343	708.40326	384.49893	454.48819	649.54364	375.44098	416.23770	735.74146	392.95486	0.00000	0.00000	0.00000	364.91187	470.28394	368.48615	0.00000	0.00000	0.00000	456.53354	430.45465	378.79712	496.93823	404.74033	375.30518	424.45035	390.37891	383.94931	459.13156	358.73544	381.59592	662.92444	220.92171	358.91443	638.19952	232.49458	269.94049	720.02362	260.97113	307.61115	626.99915	81.64987	361.17877	586.52472	85.38518	314.19559	623.73376	94.21439	256.71799	554.05554	983.63196	171.35089	381.56281	963.81757	119.01524	463.75446	732.19885	34.03074	458.19037	672.51227	48.50823	0.00000	0.00000	0.00000	0.00000	0.00000	0.00000	390.67859	464.05356	107.11452	416.05560	465.49881	217.43509	457.45010	331.66693	86.52065	455.66678	286.81982	93.80210	396.48495	330.07266	101.46104	402.67004	282.92990	104.95699	455.11685	83.55514	130.48625	454.33273	96.20440	221.43164	520.37207	53.62118	171.70639	330.06808	37.85003	233.53078	294.64923	54.62799	193.05447	320.31155	26.69105	128.24020
2006	8.02000	554.65375	978.70892	246.49739	392.15536	964.55841	331.11795	468.30200	708.78149	384.69391	449.05447	650.09094	375.58234	411.41922	736.67316	392.99655	0.00000	0.00000	0.00000	358.13919	471.49911	368.11310	0.00000	0.00000	0.00000	449.39081	430.83829	378.04239	489.47940	404.71854	374.60803	416.92474	391.14508	383.46069	451.19501	359.14310	381.17200	653.47955	219.16370	358.47284	628.52734	230.70193	269.49231	711.12488	257.78897	306.74863	614.49115	80.60645	361.67755	573.81970	84.84448	314.77390	610.62024	92.38757	257.50562	550.74127	983.89136	171.49020	378.50061	964.06213	118.52193	461.28354	732.22504	34.23494	456.04993	671.85944	48.14353	0.00000	0.00000	0.00000	0.00000	0.00000	0.00000	389.68616	464.03696	106.75843	413.93106	465.32867	217.12766	456.80511	331.76886	86.51465	455.15829	286.92398	93.80218	395.98196	330.03775	101.22370	402.36359	282.97717	104.66190	455.11230	83.59998	130.47385	454.17212	96.14085	221.47752	520.25305	53.64590	171.79662	329.99246	37.77600	233.48790	294.58066	54.51220	193.03610	320.27408	26.57776	128.20256
2007	8.02400	551.17505	979.04175	246.62387	388.44598	964.97974	330.71503	463.21686	709.15527	384.88132	443.66245	650.62360	375.72800	406.55411	737.50775	393.00366	0.00000	0.00000	0.00000	351.31421	472.76248	367.71170	365.66391	437.89438	277.51102	442.39932	431.30957	377.27167	482.20200	404.75937	373.79535	409.46887	391.96146	382.98987	443.30917	359.59579	380.75113	643.60925	217.11223	358.02313	618.63177	228.72716	269.14325	702.09668	254.45563	306.02759	601.72858	79.49798	362.19675	560.92700	84.35953	315.53760	597.74298	90.77881	257.94244	547.40717	984.17114	171.56111	375.36227	964.18427	118.15475	459.17041	732.41815	34.21880	453.96414	672.12274	48.20628	0.00000	0.00000	0.00000	0.00000	0.00000	0.00000	388.52576	463.91907	106.53040	411.67197	465.03928	216.93672	456.24423	331.88965	86.48200	454.66495	287.01370	93.80442	395.24844	329.98450	101.15736	401.73804	282.85257	104.61092	455.01248	83.61807	130.53288	453.98862	96.04539	221.51645	520.17743	53.66040	171.85774	329.88049	37.67638	233.46428	294.48572	54.42556	193.01733	320.27063	26.50753	128.14600
2008	8.02800	547.75397	979.36469	246.76468	384.70291	965.42413	330.17413	458.11191	709.50287	385.02029	438.37906	651.23279	375.96143	401.90747	738.45007	393.05350	0.00000	0.00000	0.00000	344.62265	473.98996	367.35553	359.30893	435.92355	277.66101	435.49533	431.73428	376.45602	474.99060	404.70187	372.95752	401.95056	392.62659	382.47513	435.50671	359.95462	380.25394	633.81750	214.96346	357.54810	608.82465	226.75137	268.69696	692.88507	250.88658	305.25568	588.87604	78.33051	362.63943	546.95972	82.05755	313.72314	584.79529	89.19810	258.42090	544.13666	984.41168	171.76524	372.25558	964.30249	117.80875	456.97610	732.56873	34.25535	452.00613	672.29810	48.30755	0.00000	0.00000	0.00000	0.00000	0.00000	0.00000	387.41263	463.73431	106.39044	409.83725	465.01111	216.72713	455.72638	332.04764	86.43025	454.18460	287.14343	93.81630	394.56699	329.83801	101.04459	401.14584	282.71973	104.60835	454.94452	83.63595	130.57410	453.79657	95.98350	221.55232	520.04010	53.66124	171.95639	329.77539	37.58157	233.40486	294.41217	54.33122	192.97032	320.25204	26.39158	128.11035
